# xmcd
#
# Track frame offsets: 
#        150
#        9387
#        24365
#        35870
#        51612
#        70987
#        87037
#        97970
#        111975
#        128525
#        144477
#        157850
#        169190
#        183967
#        194992
#        205647
#        219907
#        233730
#        245840
#        257405
#        270862
#        282262
#        291885
#        307710
#        321705
#        333950
#
# Disc length: 4652 seconds
#
# Revision: 2
# Processed by: cddbd v1.5.2PL0 Copyright (c) Steve Scherf et al.
# Submitted via: ExactAudioCopy v0.95b4
#
DISCID=74122a1a
DTITLE=Bland, Bobby "Blue" - That Did It!  The Duke Recordings (Volume
DTITLE=3) [CD2]
DYEAR=1996
DGENRE=Blues
TTITLE0=Lover With A Reputation
TTITLE1=Touch Of The Blues
TTITLE2=Set Me Free
TTITLE3=Save Your Love For Me
TTITLE4=Wouldn't You Rather Have Me
TTITLE5=Rockin' In The Same Old Boat
TTITLE6=This Time I'll Be True
TTITLE7=Baby I'm On My Way
TTITLE8=Ask Me About Nothin' (But The Blues)
TTITLE9=Georgia On My Mind
TTITLE10=Who Can I Turn To (When Nobody Needs Me)?
TTITLE11=Gota Get To Know You
TTITLE12=Chains Of Love
TTITLE13=Since I Fell For You
TTITLE14=Yum Yum Tree
TTITLE15=You Ought To Be Ashamed
TTITLE16=If Love Ruled The World
TTITLE17=If You Got A Heart
TTITLE18=Keep On Lovin' Me (You'll See The Change)
TTITLE19=I'm Sorry
TTITLE20=Shape Up Or Ship Out
TTITLE21=The Love That We Share (Is True)
TTITLE22=Do What You Set Out To Do
TTITLE23=I'm So Tired
TTITLE24=I Don't Want Another Mountain To Climb
TTITLE25=That's All There Is (There Ain't No More)
EXTD=MCAD2 11444\n\n[Submitted 5/30/97]\nJ. Rockwall McCoy\n(Jmccoy@ef
EXTD=n.org)
EXTT0=
EXTT1=
EXTT2=
EXTT3=
EXTT4=
EXTT5=
EXTT6=
EXTT7=
EXTT8=
EXTT9=
EXTT10=
EXTT11=
EXTT12=
EXTT13=
EXTT14=
EXTT15=
EXTT16=
EXTT17=
EXTT18=
EXTT19=
EXTT20=
EXTT21=
EXTT22=
EXTT23=
EXTT24=
EXTT25=
PLAYORDER=
